<svg xmlns="http://www.w3.org/2000/svg" viewBox="0 0 24 24" width="50px"><path d="M15.788.659a2.25 2.25 0 0 0 0 3.181l4.37 4.371a2.25 2.25 0 0 0 3.183-3.181L18.97.659a2.25 2.25 0 0 0-3.181 0zm1.06 1.06a.75.75 0 0 1 1.06 0l4.373 4.371a.75.75 0 0 1-1.061 1.06l-4.372-4.37a.75.75 0 0 1 0-1.06zM11.545.657a2.25 2.25 0 0 0-.001 3.182v.002l8.616 8.614a2.251 2.251 0 1 0 3.18-3.186L14.73.658a2.25 2.25 0 0 0-3.18-.005l-.006.006zm1.061 1.06.002-.001a.75.75 0 0 1 1.06.001l8.613 8.613a.751.751 0 1 1-1.061 1.064L12.605 2.78a.75.75 0 0 1 0-1.061zM1.72 16.848a.75.75 0 0 1 1.06 0l4.372 4.371a.75.75 0 0 1-1.07 1.051l-4.363-4.36a.75.75 0 0 1 0-1.06zm-1.061-1.06a2.25 2.25 0 0 0 0 3.181L5.03 23.34a2.25 2.25 0 0 0 3.19-3.172l-4.38-4.38v-.001a2.25 2.25 0 0 0-3.183 0zm1.06-3.184a.75.75 0 0 1 1.06 0l8.616 8.615a.751.751 0 0 1-1.064 1.062L1.719 13.67a.75.75 0 0 1-.003-1.062l.002-.003zM.66 11.543l-.006.007a2.25 2.25 0 0 0 .006 3.18l8.61 8.61a2.251 2.251 0 0 0 3.186-3.182L3.84 11.544a2.25 2.25 0 0 0-3.181 0zm6.428 4.309 8.765-8.765H14.79l2.121 2.121v-1.06l-8.764 8.764h1.06l-2.121-2.121v1.06zm-1.06-1.061a.75.75 0 0 0 0 1.06l2.12 2.122a.75.75 0 0 0 1.061 0l8.765-8.765a.75.75 0 0 0 0-1.06l-2.121-2.122a.75.75 0 0 0-1.061 0l-8.765 8.765z"></path></svg>