<svg xmlns="http://www.w3.org/2000/svg" viewBox="0 0 24 24" width="50px"><path d="M6 19a.75.75 0 1 1-1.5 0A.75.75 0 0 1 6 19m1.5 0A2.25 2.25 0 1 0 3 19a2.25 2.25 0 0 0 4.5 0m12 0a.75.75 0 1 1-1.5 0 .75.75 0 0 1 1.5 0m1.5 0a2.25 2.25 0 1 0-4.5 0 2.25 2.25 0 0 0 4.5 0m-.75.75h1.5A2.25 2.25 0 0 0 24 17.5v-3a2.25 2.25 0 0 0-2.25-2.25h-3l.75.75a6.75 6.75 0 0 0-6.75-6.75h-3a2.67 2.67 0 0 0-2.592 2.023l-1.136 4.545.728-.568h-3A3.75 3.75 0 0 0 0 16v1.5a2.25 2.25 0 0 0 2.25 2.25h1.5a.75.75 0 0 0 0-1.5h-1.5a.75.75 0 0 1-.75-.75V16a2.25 2.25 0 0 1 2.25-2.25h3a.75.75 0 0 0 .728-.568l1.136-4.545A1.17 1.17 0 0 1 9.75 7.75h3C15.65 7.75 18 10.1 18 13c0 .414.336.75.75.75h3a.75.75 0 0 1 .75.75v3a.75.75 0 0 1-.75.75h-1.5a.75.75 0 0 0 0 1.5m-13.5 0h10.5a.75.75 0 0 0 0-1.5H6.75a.75.75 0 0 0 0 1.5m0-6h12a.75.75 0 0 0 0-1.5h-12a.75.75 0 0 0 0 1.5m1.5 3H9a.75.75 0 0 0 0-1.5h-.75a.75.75 0 0 0 0 1.5m3.75 0h.75a.75.75 0 0 0 0-1.5H12a.75.75 0 0 0 0 1.5m3.75 0h.75a.75.75 0 0 0 0-1.5h-.75a.75.75 0 0 0 0 1.5M10.5 7V5.5a.75.75 0 0 1 .75-.75H12a.75.75 0 0 1 .75.75v1.547a.75.75 0 0 0 1.5 0V5.5A2.25 2.25 0 0 0 12 3.25h-.75A2.25 2.25 0 0 0 9 5.5V7a.75.75 0 0 0 1.5 0"></path></svg>