<svg xmlns="http://www.w3.org/2000/svg" viewBox="0 0 24 24" width="50px"><path d="M15.375 10.875a1.875 1.875 0 1 1-3.75 0 1.875 1.875 0 0 1 3.75 0m1.5 0a3.375 3.375 0 1 0-6.75 0 3.375 3.375 0 0 0 6.75 0m.375 12.375V18.7l-.667.745C20.748 18.98 24 15.925 24 10.5a2.25 2.25 0 0 0-4.5 0c0 1.945-.609 3.154-1.64 3.848a3.97 3.97 0 0 1-2.132.652H9a3.75 3.75 0 1 0 0 7.5h3a2.25 2.25 0 0 0 0-4.5H9a.75.75 0 0 0 0 1.5h3a.75.75 0 0 1 0 1.5H9a2.25 2.25 0 0 1 0-4.5h6.74a5.43 5.43 0 0 0 2.957-.908C20.154 14.613 21 12.932 21 10.5a.75.75 0 0 1 1.5 0c0 4.6-2.628 7.069-6.083 7.455a.75.75 0 0 0-.667.745v4.55a.75.75 0 0 0 1.5 0m-7.5-1.5v1.5a.75.75 0 0 0 1.5 0v-1.5a.75.75 0 0 0-1.5 0M.75 1.5h1.5l-.53-.22 1.402 1.402a.75.75 0 0 0 1.06-1.06L2.78.22A.75.75 0 0 0 2.25 0H.75a.75.75 0 1 0 0 1.5m2.983 3.754a.01.01 0 0 1 .016.002c-.542-1.072-.1-2.426 1.008-2.988a2.25 2.25 0 0 1 2.037 0c-.041-.022-.043-.029-.04-.034l.002-.002-3.013 3.012zm1.07 1.05 3.002-3A1.49 1.49 0 0 0 7.51.951 3.77 3.77 0 0 0 4.079.929 3.75 3.75 0 0 0 2.43 5.971a1.49 1.49 0 0 0 2.382.323zm3.408-.968 1.116.62a.75.75 0 1 0 .728-1.312l-1.116-.62a.75.75 0 1 0-.728 1.312m1.964-2.233 1.615.44a.75.75 0 1 0 .394-1.448l-1.615-.44a.75.75 0 1 0-.394 1.448m4.217 1.15 1.615.44a.75.75 0 0 0 .396-1.447l-1.615-.44a.75.75 0 0 0-.396 1.447M5.697 7.388l.577 1.038a.75.75 0 1 0 1.312-.728L7.009 6.66a.75.75 0 1 0-1.312.728M3.284 8.94l.44 1.615a.75.75 0 1 0 1.448-.394l-.44-1.615a.75.75 0 1 0-1.448.394m1.15 4.219.246.896a.75.75 0 1 0 1.446-.396l-.245-.896a.75.75 0 1 0-1.446.396z"></path></svg>