<svg xmlns="http://www.w3.org/2000/svg" viewBox="0 0 128 128" width="50px"><path d="M111.33 66.22c.06-.1.11-.2.16-.3s.15-.25.21-.39.08-.27.12-.41a3 3 0 0 0 .1-.34c.1-.515.1-1.045 0-1.56a3 3 0 0 0-.1-.34c0-.14-.07-.28-.12-.41s-.14-.26-.21-.39-.1-.2-.16-.3a5 5 0 0 0-.5-.61l-24-24a4.002 4.002 0 1 0-5.66 5.66L98.34 60H44a4 4 0 0 0 0 8h54.34L81.17 85.17a4.002 4.002 0 1 0 5.66 5.66l24-24q.275-.285.5-.61M44 120h-8c-6.627 0-12-5.373-12-12V20c0-6.627 5.373-12 12-12h8a4 4 0 0 0 0-8h-8C24.954 0 16 8.954 16 20v88c0 11.046 8.954 20 20 20h8a4 4 0 0 0 0-8"></path></svg>