<svg xmlns="http://www.w3.org/2000/svg" viewBox="0 0 24 24" width="50px"><path d="M5.999.75v22.5a.75.75 0 0 0 1.5 0V.75a.75.75 0 0 0-1.5 0m3 0V7.5a2.26 2.26 0 0 1-2.252 2.25 2.26 2.26 0 0 1-2.248-2.252V.75a.75.75 0 0 0-1.5 0V7.5a3.76 3.76 0 0 0 3.748 3.75 3.76 3.76 0 0 0 3.752-3.748V.75a.75.75 0 0 0-1.5 0m6.75 15.75h3c1.183.046 2.203-.9 2.25-2.111a2 2 0 0 0 0-.168c-.25-6.672-.828-9.78-3.231-13.533a1.508 1.508 0 0 0-2.77.81V23.25a.75.75 0 0 0 1.5 0V1.503c0 .003.001 0 .003 0l.008.002c2.21 3.45 2.75 6.354 2.99 12.773v.053a.696.696 0 0 1-.721.67L15.749 15a.75.75 0 0 0 0 1.5"></path></svg>