<svg xmlns="http://www.w3.org/2000/svg" viewBox="0 0 24 24" width="50px"><path d="M21.75 5.25a2.25 2.25 0 1 1-4.5 0 2.25 2.25 0 0 1 4.5 0m1.5 0a3.75 3.75 0 1 0-7.5 0 3.75 3.75 0 0 0 7.5 0m-6.182 15.093.188 1.5A.75.75 0 0 0 18 22.5h3a.75.75 0 0 0 .744-.657l.75-6-.744.657h1.5a.75.75 0 0 0 .75-.75V13.5a4.5 4.5 0 0 0-7.2-3.6.75.75 0 1 0 .9 1.2 3 3 0 0 1 4.8 2.4v2.25l.75-.75h-1.5a.75.75 0 0 0-.744.657l-.75 6L21 21h-3l.744.657-.188-1.5a.75.75 0 0 0-1.488.186M6.75 5.25a2.25 2.25 0 1 1-4.5 0 2.25 2.25 0 0 1 4.5 0m1.5 0a3.75 3.75 0 1 0-7.5 0 3.75 3.75 0 0 0 7.5 0M5.444 20.157l-.188 1.5L6 21H3l.744.657-.75-6A.75.75 0 0 0 2.25 15H.75l.75.75V13.5a3 3 0 0 1 4.8-2.4.75.75 0 1 0 .9-1.2A4.5 4.5 0 0 0 0 13.5v2.25c0 .414.336.75.75.75h1.5l-.744-.657.75 6A.75.75 0 0 0 3 22.5h3a.75.75 0 0 0 .744-.657l.188-1.5a.75.75 0 0 0-1.488-.186M13.5 9a1.5 1.5 0 1 1-3 0 1.5 1.5 0 0 1 3 0M15 9a3 3 0 1 0-6 0 3 3 0 0 0 6 0m-3 3a4.5 4.5 0 0 0-4.5 4.5v.75c0 .414.336.75.75.75h1.5l-.74-.627.75 4.5a.75.75 0 0 0 .74.627H12a.75.75 0 0 0 0-1.5h-1.5l.74.627-.75-4.5a.75.75 0 0 0-.74-.627h-1.5l.75.75v-.75a3 3 0 0 1 3-3 .75.75 0 0 0 0-1.5m0 1.5a3 3 0 0 1 3 3v.75l.75-.75h-1.5a.75.75 0 0 0-.74.627l-.75 4.5.74-.627H12a.75.75 0 0 0 0 1.5h1.5a.75.75 0 0 0 .74-.627l.75-4.5-.74.627h1.5a.75.75 0 0 0 .75-.75v-.75A4.5 4.5 0 0 0 12 12a.75.75 0 0 0 0 1.5"></path></svg>