<svg xmlns="http://www.w3.org/2000/svg" fill="none" viewBox="0 0 84 16"><g clip-path="url(#csi3wuymheyvvnpa)"><path fill="#FF690F" d="M.43 0h16v16h-16V0Z"></path><path fill="#fff" d="M5.362 4.004h1.945v8H5.362v-8Z"></path><path fill="#fff" d="M11.497 11.997H9.352L7.14 8.001l2.212-3.997h2.145L9.272 8l2.225 3.996Z"></path><path fill="#FF690F" d="M17.319 0h16v16h-16V0Z"></path><path fill="#fff" d="m23.869 10.847-.348 1.163H21.45l2.633-8.02h2.473l2.614 8.02h-2.12l-.347-1.15-2.833-.013Zm1.416-4.558-.935 2.988h1.871l-.936-2.988Z"></path><path fill="#FF690F" d="M34.201 0h16v16h-16V0Z"></path><path fill="#fff" d="M43.203 12.01h-1.958V8.475L38.618 3.99h2.313l1.296 2.46 1.277-2.46h2.279l-2.58 4.485v3.535Z"></path><path fill="#FF690F" d="M51.09 0h16v16h-16V0Z"></path><path fill="#fff" d="m57.64 10.847-.348 1.163H55.22l2.633-8.02h2.473l2.613 8.02h-2.118l-.348-1.15-2.834-.013Zm1.416-4.558-.935 2.988h1.87l-.935-2.988Z"></path><path fill="#FF690F" d="M67.972 0h16v16h-16V0Z"></path><path fill="#fff" d="M72.904 4.004h1.945v8h-1.945v-8Z"></path><path fill="#fff" d="M79.04 11.997h-2.146l-2.212-3.996 2.212-3.997h2.146L76.814 8l2.226 3.996Z"></path></g><defs><clipPath id="csi3wuymheyvvnpa"><path fill="#fff" d="M0 0h83.542v16H0z" transform="translate(.43)"></path></clipPath></defs></svg>