<svg xmlns="http://www.w3.org/2000/svg" fill="none" viewBox="0 0 69 16"><g fill="#0071C2" clip-path="url(#csi3wuymheyvvnva)"><path d="M61.944 7.25c-.056-.369-.113-.878-.48-1.275-.312-.34-.822-.51-1.275-.51a1.79 1.79 0 0 0-1.331.595c-.368.397-.453.821-.538 1.19h3.624Zm2.606 3.341c-.312.453-.623.906-1.076 1.331-.765.736-1.926 1.274-3.342 1.274-2.633 0-4.503-1.699-4.503-4.644 0-2.18 1.048-4.956 4.56-4.956.538 0 2.067.057 3.2 1.303 1.16 1.246 1.217 3.002 1.246 4.021H58.29c-.028 1.133.623 2.238 2.011 2.238 1.444 0 1.926-.935 2.237-1.586l2.01 1.02ZM49.4 4.701c.254-.283.424-.482.877-.708.397-.17.991-.312 1.614-.312.538 0 1.133.114 1.586.369.935.51 1.161 1.302 1.161 2.69v6.145h-2.605v-5.07c0-.82-.028-1.104-.113-1.33-.199-.481-.652-.68-1.161-.68-1.388 0-1.388 1.133-1.388 2.237v4.843h-2.634V3.908h2.634l.028.793Zm-4.305-3.087c0 .793-.623 1.416-1.416 1.416a1.439 1.439 0 0 1-1.416-1.416c0-.793.623-1.416 1.416-1.416a1.42 1.42 0 0 1 1.416 1.416ZM42.376 3.88h2.577v9.005h-2.577V3.88Zm-1.755 9.005h-2.634V0h2.634v12.885ZM34.136 7.25c-.057-.369-.114-.878-.51-1.275-.312-.34-.821-.51-1.274-.51a1.79 1.79 0 0 0-1.331.595c-.369.397-.454.821-.538 1.19h3.653Zm2.633 3.341c-.311.453-.623.906-1.076 1.331-.764.736-1.925 1.274-3.37 1.274-2.633 0-4.502-1.699-4.502-4.644 0-2.18 1.047-4.956 4.559-4.956.538 0 2.067.057 3.2 1.303 1.16 1.246 1.218 3.002 1.274 4.021h-6.371c-.029 1.133.623 2.238 2.039 2.238 1.444 0 1.925-.935 2.265-1.586l1.982 1.02Zm-10.251-.453c0-.028-.057-.028-.057 0-.056.085-.113.198-.198.283-.538.623-1.19.623-1.33.623-1.389 0-1.983-1.5-1.983-2.69 0-1.076.481-2.719 1.897-2.719.397 0 .736.142.991.312.368.255.538.51.68.793.028.028.057.028.057.028.198-.736.566-1.444 1.132-2.01-1.02-.963-2.209-1.133-2.973-1.133-2.974 0-4.475 2.209-4.475 4.814 0 3.681 2.72 4.7 4.418 4.7.991 0 1.87-.339 2.549-.82.142-.114.283-.227.396-.34a3.67 3.67 0 0 1-1.104-1.84Zm-7.306-8.524c0 .793-.623 1.416-1.416 1.416a1.439 1.439 0 0 1-1.416-1.416c0-.793.623-1.416 1.416-1.416a1.42 1.42 0 0 1 1.416 1.416ZM16.493 3.88h2.577v9.005h-2.577V3.88Zm-3.681.934c.566-.51 1.217-.906 2.577-1.02v2.351l-.878.142c-1.246.226-1.643.425-1.643 1.557v5.07h-2.633V3.88h2.548v.934h.029Zm-7.93.736c-.48 0-.962.199-1.359.737-.368.51-.538 1.274-.538 2.124 0 1.132.283 1.84.623 2.209.312.34.736.51 1.161.51 1.275 0 1.841-1.388 1.841-2.804 0-1.19-.312-2.436-1.388-2.719-.113-.028-.226-.057-.34-.057Zm-2.095-.792c.085-.114.17-.199.255-.284.453-.424 1.246-.793 2.237-.793 2.18 0 3.88 1.671 3.88 4.673 0 1.84-.793 4.7-3.852 4.7-.99 0-1.5-.339-2.209-.764V16H.465V3.908h2.322v.85ZM66.475.963c.369 0 .68.085.992.255.311.17.538.425.708.708.17.311.254.623.254.963 0 .34-.085.68-.254.962-.17.312-.397.538-.708.708-.312.17-.623.255-.992.255-.368 0-.68-.085-.99-.255a1.887 1.887 0 0 1-.709-.708 1.96 1.96 0 0 1-.254-.962c0-.34.084-.68.254-.963.17-.312.397-.538.708-.708.312-.17.623-.255.992-.255Zm0 3.426c.284 0 .538-.056.765-.198a1.63 1.63 0 0 0 .538-.538c.142-.226.198-.481.198-.736s-.056-.51-.198-.736a1.63 1.63 0 0 0-.538-.538 1.372 1.372 0 0 0-.736-.199c-.283 0-.538.057-.765.199a1.629 1.629 0 0 0-.538.538 1.372 1.372 0 0 0-.198.736c0 .255.056.51.198.736.142.227.312.397.538.538.198.142.453.198.736.198Zm.822-1.812a.783.783 0 0 1-.085.368c-.057.113-.142.17-.255.227l.396.594h-.538l-.283-.51h-.34v.51h-.481V1.954h.793c.255 0 .425.057.566.17.17.085.227.255.227.453Zm-1.105.312h.34c.113 0 .17-.029.227-.085.056-.057.085-.114.085-.227a.322.322 0 0 0-.085-.227.322.322 0 0 0-.227-.084h-.34v.623Z"></path></g><defs><clipPath id="csi3wuymheyvvnva"><path fill="#fff" d="M0 0h67.965v16H0z" transform="translate(.465)"></path></clipPath></defs></svg>