<svg xmlns="http://www.w3.org/2000/svg" viewBox="0 0 128 128" width="50px"><path d="M87.33 66.22c.06-.1.11-.2.16-.3q.115-.188.2-.39a3 3 0 0 0 .13-.41q.06-.168.1-.34c.1-.515.1-1.045 0-1.56a3 3 0 0 0-.1-.34 3 3 0 0 0-.13-.41 3 3 0 0 0-.2-.39c0-.1-.1-.2-.16-.3a5 5 0 0 0-.5-.61l-24-24a4.002 4.002 0 1 0-5.66 5.66L74.34 60H20a4 4 0 0 0 0 8h54.34L57.17 85.17a4.002 4.002 0 1 0 5.66 5.66l24-24q.275-.285.5-.61M92 0h-8a4 4 0 0 0 0 8h8c6.627 0 12 5.373 12 12v88c0 6.627-5.373 12-12 12h-8a4 4 0 0 0 0 8h8c11.046 0 20-8.954 20-20V20c0-11.046-8.954-20-20-20"></path></svg>