<svg xmlns="http://www.w3.org/2000/svg" viewBox="0 0 24 24" width="50px"><path d="M12.974 3.554a1.875 1.875 0 1 1-3.75 0 1.875 1.875 0 0 1 3.75 0m1.5 0a3.375 3.375 0 1 0-6.75 0 3.375 3.375 0 0 0 6.75 0m3.675 7.496a1.49 1.49 0 0 1-1.168-.56 8.45 8.45 0 0 0-6.634-3.19A6.756 6.756 0 0 0 3.6 14.05a2.25 2.25 0 1 0 4.5 0 2.255 2.255 0 0 1 1.689-2.174L9.6 11.15h-.75v.5a15.57 15.57 0 0 1-2.622 8.66 2.252 2.252 0 1 0 3.748 2.496 20.2 20.2 0 0 0 2.336-4.768l-1.111.396a7.3 7.3 0 0 1 3.018 3.838c.343 1.165 1.595 1.846 2.787 1.494a2.25 2.25 0 0 0 1.47-2.944 11.77 11.77 0 0 0-5.785-6.712l.398.788c.175-1.074.263-2.16.263-3.248v-.03h-.75l-.356.66a4 4 0 0 1 1.223 1.022 5.97 5.97 0 0 0 4.688 2.252 2.25 2.25 0 0 0-.002-4.5v.75l.6-.45-.003-.004a.75.75 0 0 0-.602-.3zm.004 1.5-.002-.75-.6.45.003.004a.75.75 0 0 0 .6.3.75.75 0 0 1 0 1.5 4.47 4.47 0 0 1-3.513-1.687 5.5 5.5 0 0 0-1.684-1.407.75.75 0 0 0-1.106.66v.03c0 1.007-.081 2.012-.243 3.006a.75.75 0 0 0 .398.788 10.3 10.3 0 0 1 5.081 5.952.75.75 0 0 1-1.439.425A8.8 8.8 0 0 0 12 17.166a.75.75 0 0 0-1.111.396 18.7 18.7 0 0 1-2.162 4.412.752.752 0 0 1-1.252-.832 17.07 17.07 0 0 0 2.874-9.493v-.499a.75.75 0 0 0-.939-.726 3.756 3.756 0 0 0-2.81 3.624.75.75 0 1 1-1.5.002 5.256 5.256 0 0 1 5.25-5.25 6.95 6.95 0 0 1 5.459 2.624 2.99 2.99 0 0 0 2.345 1.126z"></path></svg>