<svg xmlns="http://www.w3.org/2000/svg" viewBox="0 0 24 24" width="50px"><path d="M8.252 24h6a.75.75 0 0 0 0-1.5h-6a.75.75 0 0 0 0 1.5m3.75-.75v-9a.75.75 0 0 0-1.5 0v9a.75.75 0 0 0 1.5 0m7.5-16.19a1.5 1.5 0 0 0-1.06-2.56H4.062a1.5 1.5 0 0 0-1.06 2.56l7.72 7.72a.75.75 0 0 0 1.06 0zM18.44 6l-7.72 7.72h1.061L4.062 6zM.752 1.5h2.822a.75.75 0 0 1 .671.415l1.836 3.67a.75.75 0 1 0 1.342-.67L5.587 1.244A2.25 2.25 0 0 0 3.574 0H.752a.75.75 0 1 0 0 1.5m15.81 3.603a2.997 2.997 0 1 1 1.511 2.038.75.75 0 0 0-.713 1.319 4.497 4.497 0 1 0-2.268-3.06.75.75 0 1 0 1.47-.297"></path></svg>