<svg xmlns="http://www.w3.org/2000/svg" viewBox="0 0 24 24" width="50px"><path d="M18.33 3.57 5.7 9.955l.79.07-1.96-1.478a.75.75 0 0 0-.753-.087l-2.1.925C.73 9.856.359 10.967.817 11.88c.11.22.263.417.45.577l3.997 3.402a2.94 2.94 0 0 0 3.22.4l3.62-1.8-1.084-.671v5.587a1.833 1.833 0 0 0 2.654 1.657l1.88-.932a1.85 1.85 0 0 0 .975-1.226l1.87-7.839-.396.498 3.441-1.707a3.494 3.494 0 1 0-3.11-6.259zm.672 1.342a1.994 1.994 0 0 1 1.775 3.571l-3.44 1.707a.75.75 0 0 0-.396.498l-1.87 7.838a.35.35 0 0 1-.185.232l-1.88.932a.335.335 0 0 1-.486-.304V13.79a.75.75 0 0 0-1.084-.672l-3.62 1.8a1.44 1.44 0 0 1-1.578-.197l-3.997-3.402a.35.35 0 0 1 .073-.577l2.067-.91-.754-.087 1.96 1.478a.75.75 0 0 0 .79.07l12.63-6.383zm-3.272.319-4.46-2.26a1.85 1.85 0 0 0-1.656-.001l-1.846.912a1.85 1.85 0 0 0-.295 3.128l2.573 1.955a.75.75 0 1 0 .908-1.194L8.38 5.816a.35.35 0 0 1 .055-.591l1.845-.912a.35.35 0 0 1 .315 0l4.456 2.256a.75.75 0 0 0 .678-1.338z"></path></svg>