<svg xmlns="http://www.w3.org/2000/svg" viewBox="0 0 24 24" width="50px"><path d="M13.868 3.379a1.875 1.875 0 1 1-3.75 0 1.875 1.875 0 0 1 3.75 0m1.5 0a3.375 3.375 0 1 0-6.75 0 3.375 3.375 0 0 0 6.75 0m-4.125 13.875v4.5a.75.75 0 0 0 1.5 0v-4.5a.75.75 0 0 0-1.5 0m9.505-10.122a2.25 2.25 0 0 0-3.12.624 1.15 1.15 0 0 1-1.364.442 12.1 12.1 0 0 0-8.516 0 1.15 1.15 0 0 1-1.37-.44 2.252 2.252 0 1 0-3.75 2.494 5.64 5.64 0 0 0 6.62 2.19l-1.004-.706v10.018a2.25 2.25 0 0 0 4.5 0h-1.5a2.25 2.25 0 0 0 4.5 0l.006-10.024H15l-.255.705a5.636 5.636 0 0 0 6.628-2.185 2.25 2.25 0 0 0-.625-3.118m-.832 1.248a.75.75 0 0 1 .208 1.04 4.14 4.14 0 0 1-4.87 1.605.75.75 0 0 0-1.004.705l-.006 10.024a.75.75 0 1 1-1.5 0c0-1-1.5-1-1.5 0a.75.75 0 0 1-1.5 0V11.736a.75.75 0 0 0-1.005-.705 4.14 4.14 0 0 1-4.86-1.61.752.752 0 1 1 1.25-.833A2.65 2.65 0 0 0 8.279 9.6a10.6 10.6 0 0 1 7.457.001 2.65 2.65 0 0 0 3.141-1.015.75.75 0 0 1 1.039-.207zM18 5.254a2.25 2.25 0 0 1 4.5 0l.75-.75h-6zm-1.5 0c0 .414.336.75.75.75h6a.75.75 0 0 0 .75-.75 3.75 3.75 0 1 0-7.5 0m4.5-3v-1.5a.75.75 0 0 0-1.5 0v1.5a.75.75 0 0 0 1.5 0m-19.5 3a2.25 2.25 0 0 1 4.5 0l.75-.75h-6zm-1.5 0c0 .414.336.75.75.75h6a.75.75 0 0 0 .75-.75 3.75 3.75 0 1 0-7.5 0m4.5-3v-1.5a.75.75 0 0 0-1.5 0v1.5a.75.75 0 0 0 1.5 0"></path></svg>