<svg xmlns="http://www.w3.org/2000/svg" viewBox="0 0 24 24" width="50px" data-rtl-flip="true"><path d="M6.306 17.25a8.25 8.25 0 1 1 11.69-7.502.75.75 0 1 0 1.5 0A9.75 9.75 0 0 0 13.812.889C8.917-1.356 3.13.791.884 5.685-1.36 10.58.786 16.367 5.68 18.613a.75.75 0 0 0 .626-1.364zM3.756 3.5l5.28 2a.75.75 0 0 1 .475.851l-.313 1.57a.75.75 0 0 1-.554.58l-2.08.518a.75.75 0 0 0-.514.45l-1.154 2.884a2.24 2.24 0 0 1-.84 1.037l-1.84 1.263a.75.75 0 1 0 .85 1.236l1.83-1.257a3.73 3.73 0 0 0 1.393-1.722l1.153-2.884-.514.449 2.079-.52a2.25 2.25 0 0 0 1.661-1.74l.314-1.57a2.25 2.25 0 0 0-1.417-2.548l-5.277-2A.75.75 0 1 0 3.756 3.5m11.565-.57-1.467 2.926a2.25 2.25 0 0 0-.122 1.718l.557 1.663a.75.75 0 1 0 1.422-.476L15.154 7.1a.75.75 0 0 1 .041-.572l1.466-2.924a.75.75 0 1 0-1.34-.672zm7.175 16.192v2.625a.75.75 0 0 1-.75.75h-10.5a.75.75 0 0 1-.75-.75v-5.25a.75.75 0 0 1 .75-.75h10.5a.75.75 0 0 1 .75.75zm1.5 0v-2.625a2.25 2.25 0 0 0-2.25-2.25h-10.5a2.25 2.25 0 0 0-2.25 2.25v5.25a2.25 2.25 0 0 0 2.25 2.25h10.5a2.25 2.25 0 0 0 2.25-2.25zm-12-4.125v8.25a.75.75 0 0 0 1.5 0v-8.25a.75.75 0 0 0-1.5 0m7.5 0v8.25a.75.75 0 0 0 1.5 0v-8.25a.75.75 0 0 0-1.5 0m-4.5.002v-.75a1.5 1.5 0 0 1 3 0V15a.75.75 0 0 0 1.5 0v-.75a3 3 0 1 0-6 0V15a.75.75 0 0 0 1.5 0z"></path></svg>