<svg xmlns="http://www.w3.org/2000/svg" fill="none" viewBox="0 0 180 30"><path fill="#003B95" d="M70.6 2.73999C70.602 2.19808 70.7646 1.66892 71.0673 1.21943C71.3701 0.769947 71.7993 0.420321 72.3007 0.214768C72.8021 0.00921437 73.3532 -0.0430342 73.8843 0.064629C74.4155 0.172292 74.9027 0.435032 75.2845 0.819622C75.6663 1.20421 75.9255 1.69338 76.0293 2.22527C76.133 2.75716 76.0768 3.30788 75.8676 3.80779C75.6584 4.3077 75.3056 4.73434 74.8539 5.03377C74.4022 5.3332 73.8719 5.49197 73.33 5.48999C72.9702 5.48868 72.6141 5.41651 72.2822 5.2776C71.9503 5.13869 71.649 4.93576 71.3955 4.6804C71.1419 4.42504 70.9412 4.12225 70.8047 3.78931C70.6683 3.45637 70.5987 3.09982 70.6 2.73999V2.73999ZM116.5 23.74C117.044 23.742 117.577 23.5824 118.031 23.2814C118.484 22.9804 118.838 22.5516 119.048 22.0493C119.257 21.547 119.313 20.9938 119.208 20.4597C119.103 19.9255 118.842 19.4346 118.458 19.049C118.074 18.6634 117.584 18.4005 117.05 18.2936C116.516 18.1867 115.963 18.2405 115.46 18.4484C114.957 18.6562 114.527 19.0087 114.224 19.4611C113.922 19.9136 113.76 20.4457 113.76 20.99C113.756 21.3528 113.824 21.7128 113.96 22.0493C114.096 22.3857 114.297 22.692 114.551 22.9504C114.806 23.2088 115.109 23.4143 115.444 23.5549C115.778 23.6956 116.137 23.7687 116.5 23.77V23.74ZM34.34 15.25C34.3539 16.9569 33.8606 18.6295 32.9228 20.0558C31.985 21.4821 30.6448 22.5979 29.0721 23.2616C27.4995 23.9254 25.7651 24.1072 24.089 23.7842C22.4128 23.4612 20.8703 22.6477 19.657 21.4471C18.4437 20.2464 17.6142 18.7125 17.2736 17.0398C16.933 15.3671 17.0967 13.631 17.744 12.0515C18.3912 10.472 19.4929 9.12017 20.9093 8.16745C22.3257 7.21474 23.993 6.70401 25.7 6.69999C26.8418 6.65398 27.9809 6.84396 29.046 7.25808C30.1111 7.67219 31.0793 8.30152 31.8902 9.10676C32.701 9.91199 33.3371 10.8758 33.7586 11.938C34.1801 13.0002 34.3781 14.1379 34.34 15.28V15.25ZM29.73 15.25C29.73 12.57 28.07 10.7 25.73 10.7C23.39 10.7 21.73 12.57 21.73 15.25C21.73 17.93 23.37 19.8 25.73 19.8C28.09 19.8 29.73 17.97 29.73 15.28V15.25ZM65.3 15.68C65.1321 15.3416 64.9128 15.0313 64.65 14.76L64.5 14.6L64.66 14.45C64.9116 14.1778 65.1423 13.887 65.35 13.58L69.74 7.02999H64.41L61.1 12.16C60.9586 12.3142 60.782 12.4321 60.5852 12.5034C60.3885 12.5748 60.1774 12.5977 59.97 12.57H59.22V2.90999C59.22 0.979993 58.01 0.709993 56.71 0.709993H54.48V23.58H59.21V16.72H59.65C60.19 16.72 60.56 16.78 60.73 17.08L63.35 21.97C63.5773 22.5089 63.9785 22.9563 64.4895 23.2408C65.0006 23.5253 65.5922 23.6306 66.17 23.54H69.8L67.09 19.07L65.3 15.68ZM88.3 6.67999C87.4047 6.66014 86.5151 6.82782 85.6884 7.17226C84.8618 7.5167 84.1163 8.03028 83.5 8.67999L83.21 8.96999L83.11 8.56999C82.9561 8.07803 82.6321 7.65692 82.196 7.38207C81.7599 7.10723 81.2402 6.9966 80.73 7.06999H78.6V23.57H83.32V15.97C83.305 15.2919 83.403 14.6159 83.61 13.97C83.8279 13.1302 84.3223 12.3883 85.0136 11.8639C85.7048 11.3396 86.5525 11.0634 87.42 11.08C88.88 11.08 89.42 11.85 89.42 13.86V21.05C89.365 21.3921 89.3919 21.7424 89.4986 22.072C89.6053 22.4017 89.7886 22.7013 90.0336 22.9463C90.2787 23.1914 90.5783 23.3747 90.908 23.4814C91.2376 23.5881 91.5879 23.615 91.93 23.56H94.15V13.07C94.15 8.89999 92.12 6.68999 88.27 6.68999L88.3 6.67999ZM73.42 7.04999H71.2V23.58H75.9V9.57999C75.9545 9.23754 75.9274 8.88705 75.8207 8.55711C75.714 8.22717 75.5308 7.92712 75.2861 7.68143C75.0414 7.43574 74.7421 7.25138 74.4126 7.14339C74.083 7.03539 73.7327 7.00681 73.39 7.05999L73.42 7.04999ZM52.8 15.28C52.8158 16.9897 52.3235 18.6657 51.3853 20.0951C50.4472 21.5246 49.1055 22.6431 47.5307 23.3089C45.9558 23.9747 44.2186 24.1576 42.5396 23.8345C40.8606 23.5114 39.3154 22.6969 38.1001 21.4942C36.8847 20.2915 36.054 18.7549 35.7134 17.0794C35.3727 15.4038 35.5375 13.6649 36.1867 12.0831C36.8359 10.5013 37.9404 9.14808 39.36 8.19502C40.7795 7.24195 42.4502 6.73205 44.16 6.72999C45.2992 6.68421 46.4357 6.87336 47.4987 7.28565C48.5617 7.69795 49.5285 8.32457 50.3389 9.12655C51.1493 9.92853 51.786 10.8887 52.2094 11.9473C52.6328 13.0059 52.8338 14.1403 52.8 15.28V15.28ZM48.19 15.28C48.19 12.6 46.53 10.73 44.19 10.73C41.85 10.73 40.19 12.6 40.19 15.28C40.19 17.96 41.83 19.83 44.19 19.83C46.55 19.83 48.19 17.97 48.19 15.28V15.28ZM153.53 15.28C153.544 16.9869 153.051 18.6595 152.113 20.0858C151.175 21.5121 149.835 22.6279 148.262 23.2916C146.689 23.9554 144.955 24.1372 143.279 23.8142C141.603 23.4912 140.06 22.6777 138.847 21.4771C137.634 20.2764 136.804 18.7425 136.464 17.0698C136.123 15.3971 136.287 13.661 136.934 12.0815C137.581 10.502 138.683 9.15017 140.099 8.19745C141.516 7.24474 143.183 6.73401 144.89 6.72999C146.029 6.68421 147.166 6.87336 148.229 7.28565C149.292 7.69795 150.258 8.32457 151.069 9.12655C151.879 9.92853 152.516 10.8887 152.939 11.9473C153.363 13.0059 153.564 14.1403 153.53 15.28V15.28ZM148.92 15.28C148.92 12.6 147.26 10.73 144.92 10.73C142.58 10.73 140.92 12.6 140.92 15.28C140.92 17.96 142.56 19.83 144.92 19.83C147.28 19.83 148.92 17.97 148.92 15.28V15.28ZM111.92 7.01999V22.17C111.92 27.94 107.25 30 103.25 30C101.25 29.9851 99.2804 29.5022 97.5 28.59L97.17 28.42L98.08 26.14C98.1174 25.9257 98.2045 25.7232 98.3343 25.5487C98.4642 25.3743 98.6332 25.2327 98.8277 25.1354C99.0223 25.0382 99.2369 24.9879 99.4544 24.9887C99.6719 24.9895 99.8862 25.0413 100.08 25.14C101.092 25.5155 102.161 25.715 103.24 25.73C105.82 25.73 107.24 24.51 107.24 22.3V21.84L106.88 22.12C105.825 22.8661 104.551 23.2391 103.26 23.18C98.88 23.18 95.81 19.74 95.81 14.83C95.81 9.91999 98.81 6.59999 103.17 6.59999C104.741 6.53072 106.283 7.04344 107.5 8.03999L107.72 8.22999L107.84 7.97999C108.031 7.64497 108.315 7.37233 108.657 7.19491C109 7.01749 109.386 6.94285 109.77 6.97999L111.92 7.01999ZM107.32 14.91C107.32 11.23 105.32 10.81 103.83 10.81C100.83 10.81 100.6 13.81 100.6 14.81C100.6 16.91 101.52 19.16 104.08 19.16C105.54 19.11 107.3 18.38 107.3 14.91H107.32ZM15.77 16.84C15.77 20.84 12.67 23.5 7.88 23.5H0V3.09999C0.00471433 2.48223 0.247466 1.89007 0.677736 1.44677C1.10801 1.00346 1.69265 0.743142 2.31 0.719993H7.79C12.09 0.719993 14.88 3.03999 14.88 6.63999C14.9049 7.45565 14.7493 8.26672 14.4243 9.01525C14.0993 9.76377 13.6129 10.4313 13 10.97L12.4 11.49L13.09 11.87C13.9391 12.3844 14.6353 13.1164 15.1065 13.9902C15.5776 14.864 15.8067 15.8479 15.77 16.84V16.84ZM4.38 9.96999H7.82C8.18097 9.9814 8.54025 9.91599 8.87405 9.77811C9.20784 9.64023 9.50854 9.43302 9.75624 9.17019C10.0039 8.90737 10.193 8.59493 10.3109 8.25355C10.4287 7.91218 10.4728 7.54966 10.44 7.18999C10.4737 6.82919 10.4276 6.46538 10.305 6.12438C10.1824 5.78338 9.98629 5.47353 9.73052 5.21681C9.47476 4.9601 9.16565 4.7628 8.8251 4.63892C8.48456 4.51504 8.12093 4.46761 7.76 4.49999H5.76C4.76 4.55999 4.34 5.05999 4.34 6.11999L4.38 9.96999ZM11.27 16.57C11.3013 16.1584 11.2434 15.7449 11.1004 15.3577C10.9573 14.9705 10.7324 14.6187 10.441 14.3263C10.1495 14.034 9.79849 13.8079 9.41176 13.6636C9.02502 13.5192 8.6117 13.46 8.2 13.49H5.59C4.76 13.61 4.38 14.12 4.38 15.1V19.68H8.2C8.61895 19.7149 9.04044 19.6568 9.43426 19.5096C9.82808 19.3625 10.1845 19.1301 10.4779 18.829C10.7713 18.528 10.9945 18.1657 11.1314 17.7682C11.2684 17.3708 11.3157 16.9479 11.27 16.53V16.57ZM174.53 6.77999C173.558 6.78366 172.6 7.00575 171.726 7.42984C170.852 7.85393 170.084 8.46915 169.48 9.22999L169.14 9.66999L168.87 9.17999C168.437 8.395 167.787 7.75128 166.998 7.3257C166.209 6.90012 165.314 6.71067 164.42 6.77999C163.6 6.79964 162.792 6.98725 162.048 7.33125C161.303 7.67525 160.637 8.16832 160.09 8.77999L159.65 9.25999L159.48 8.62999C159.323 8.16152 159.008 7.76282 158.587 7.50334C158.167 7.24386 157.669 7.14005 157.18 7.20999H155.18V23.57H159.64V16.31C159.646 15.6629 159.727 15.0187 159.88 14.39C160.31 12.63 161.49 10.74 163.47 10.93C164.69 11.05 165.29 11.99 165.29 13.82V23.57H169.81V16.31C169.791 15.6345 169.875 14.9601 170.06 14.31C170.42 12.64 171.65 10.92 173.56 10.92C174.94 10.92 175.46 11.7 175.46 13.81V21.17C175.46 22.83 176.19 23.57 177.85 23.57H180V13.07C180 8.86999 178.15 6.73999 174.53 6.73999V6.77999ZM133.69 17.86C132.51 19.095 130.913 19.8471 129.21 19.97C128.593 20.0073 127.974 19.914 127.395 19.6962C126.816 19.4784 126.29 19.141 125.85 18.706C125.41 18.271 125.067 17.7482 124.843 17.1716C124.619 16.5951 124.519 15.9778 124.55 15.36C124.498 14.7504 124.575 14.1365 124.776 13.5588C124.978 12.981 125.299 12.4524 125.719 12.0076C126.14 11.5629 126.649 11.212 127.215 10.978C127.78 10.744 128.388 10.6322 129 10.65C129.84 10.65 130.8 10.95 130.95 11.46V11.55C131.048 11.8986 131.258 12.2056 131.547 12.424C131.835 12.6425 132.188 12.7605 132.55 12.76H135V10.61C135 7.76999 131.39 6.73999 129 6.73999C123.81 6.73999 120 10.37 120 15.35C120 20.33 123.73 23.97 128.86 23.97C130.178 23.9562 131.479 23.6722 132.683 23.1355C133.887 22.5989 134.969 21.821 135.86 20.85L134 17.58L133.69 17.86Z"></path></svg>