<svg xmlns="http://www.w3.org/2000/svg" viewBox="0 0 24 24" width="50px"><path d="M12 19.041a.9.9 0 0 1 .531.174l5.344 3.919.001.001.148.092a1.1 1.1 0 0 0 .502.122l-.001.4-.12-.005a1.5 1.5 0 0 1-.766-.287l-5.344-3.919a.5.5 0 0 0-.217-.09L12 19.442a.5.5 0 0 0-.295.096l-5.346 3.92-.099.067a1.5 1.5 0 0 1-.786.223v-.4a1.1 1.1 0 0 0 .648-.213l5.346-3.92h.001l.121-.074a.9.9 0 0 1 .41-.1m.114-18.79a1.5 1.5 0 0 1 1.29.97l2.186 6.194a.5.5 0 0 0 .472.334h6.087a1.51 1.51 0 0 1 1.406.98c.106.288.122.601.045.898l-.033.11a1.5 1.5 0 0 1-.445.653l-5.194 4.306a.5.5 0 0 0-.161.248l-.016.073a.5.5 0 0 0 .022.222l2.178 6.535a1.5 1.5 0 0 1 .006.932l-.04.112a1.5 1.5 0 0 1-.506.643l-.1.067a1.5 1.5 0 0 1-.786.221v-.4a1.102 1.102 0 0 0 1.088-1.28l-.041-.168-2.178-6.535a.9.9 0 0 1 .278-.978h.001l5.194-4.306a1.1 1.1 0 0 0 .313-1.214l-.07-.152a1.1 1.1 0 0 0-.795-.554l-.167-.013h-6.086v-.001a.9.9 0 0 1-.793-.473l-.056-.127-2.182-6.185-.07-.153a1.1 1.1 0 0 0-1.99.148l-.001.006-.003.007-2.18 6.177a.9.9 0 0 1-.847.6H1.85a1.1 1.1 0 0 0-.707 1.944l5.183 4.3.098.095a.9.9 0 0 1 .215.752l-.033.13-2.179 6.532a1.1 1.1 0 0 0 1.046 1.447v.4l-.12-.005a1.5 1.5 0 0 1-.667-.216l-.099-.067a1.5 1.5 0 0 1-.504-.643l-.04-.112a1.5 1.5 0 0 1-.028-.817l.033-.114 2.178-6.53a.5.5 0 0 0 .021-.223l-.014-.074a.5.5 0 0 0-.108-.195l-.054-.052-5.184-4.3a1.5 1.5 0 0 1-.452-.65L.4 9.638a1.5 1.5 0 0 1 .003-.792l.035-.11a1.5 1.5 0 0 1 .458-.647l.092-.07a1.5 1.5 0 0 1 .746-.267l.115-.004h6.089l.077-.006a.5.5 0 0 0 .145-.046l.067-.04a.5.5 0 0 0 .151-.171l.031-.07 2.18-6.178.005-.016a1.5 1.5 0 0 1 .459-.639l.09-.068c.252-.174.55-.268.856-.268z"></path></svg>