<svg xmlns="http://www.w3.org/2000/svg" fill="none" viewBox="0 0 51 20"><g clip-path="url(#csi3wuymheyvvnma)"><path fill="#262626" d="M13.397 5.98c-.067.531.133 1.063.465 1.528.266.332.73.532 1.13.532.265 0 .531-.067.797-.2s.465-.398.598-.664c.133-.332.266-.731.2-1.063.066-.598-.134-1.13-.466-1.595-.266-.399-.73-.598-1.196-.598-.465 0-.864.2-1.13.532-.265.398-.465.996-.398 1.528Zm4.85-2.06v4.85c0 .466-.066.997-.199 1.462-.133.399-.332.731-.598.997-.266.266-.665.465-.997.598-.465.066-.996.133-1.528.133s-1.063-.067-1.528-.266a3.369 3.369 0 0 1-1.063-.598c-.2-.2-.332-.465-.399-.797 0-.2.066-.399.2-.465a.754.754 0 0 1 .53-.2c.267 0 .466.133.665.333l.266.332c.067.133.2.2.332.332l.399.2c.2.066.399.066.532.066.332 0 .664-.067.996-.2.2-.132.399-.265.532-.531.066-.2.133-.465.2-.665 0-.265 0-.664.066-1.196-.266.333-.532.598-.93.798-.4.2-.798.266-1.197.266-.531 0-.996-.133-1.461-.466-.4-.332-.731-.73-.93-1.196-.266-.531-.333-1.196-.333-1.794 0-.465.067-.93.2-1.329.132-.398.332-.73.598-.996.265-.266.531-.465.863-.598.266-.266.598-.332.997-.332s.864.066 1.262.265c.4.2.731.532.997.864v-.2c0-.265.066-.464.2-.664.066-.199.265-.265.531-.265.266-.067.532.066.664.332.067.266.133.531.133.93ZM27.218 6.046c.067-.598-.133-1.13-.465-1.595-.266-.398-.73-.598-1.196-.598-.332 0-.598.067-.864.266-.266.2-.465.465-.598.731-.265.73-.265 1.528 0 2.326.133.332.332.598.598.73.266.2.532.266.864.266.465 0 .93-.2 1.196-.598.332-.398.532-.93.465-1.528Zm1.661 0c0 .465-.066.93-.266 1.395a2.892 2.892 0 0 1-.664 1.063c-.266.333-.664.532-1.063.665-.465.2-.93.266-1.395.266a3.47 3.47 0 0 1-1.396-.266c-.797-.332-1.461-.997-1.727-1.794-.332-.864-.332-1.86 0-2.79.133-.4.398-.798.664-1.064.266-.332.665-.532 1.063-.664a3.848 3.848 0 0 1 2.725 0c.398.132.73.398 1.063.73.265.333.531.665.664 1.064.266.465.332.93.332 1.395ZM34.593 6.046c0 .4.067.798.2 1.13.133.266.332.532.598.73.266.134.531.267.797.267s.532-.067.797-.2c.266-.199.466-.398.599-.73.132-.4.199-.798.199-1.197 0-.398-.067-.797-.2-1.13a2.078 2.078 0 0 0-.597-.73 1.277 1.277 0 0 0-.798-.266c-.266 0-.598.067-.797.266-.332.2-.532.465-.665.73-.133.4-.199.732-.133 1.13Zm3.323 2.459v-.133c-.2.2-.399.465-.665.598-.2.133-.465.266-.73.399-.266.066-.532.133-.864.133-.4 0-.798-.067-1.13-.266-.332-.2-.665-.399-.864-.731a3.693 3.693 0 0 1-.598-1.13c-.133-.465-.2-.93-.2-1.395 0-1.063.267-1.86.798-2.458.532-.532 1.263-.864 1.994-.864.398 0 .797.066 1.196.266.398.199.664.465.996.73V1.196c0-.266.067-.532.2-.797.133-.2.332-.266.598-.266.199 0 .465.066.598.266.133.199.199.465.199.73v7.376c0 .266-.067.531-.2.73a.842.842 0 0 1-.597.267c-.2 0-.4-.067-.598-.266a.922.922 0 0 1-.133-.731ZM48.082 6.113c-.333.133-.731.2-1.063.266-.466.067-.798.2-.997.2-.2.066-.399.132-.532.265a.842.842 0 0 0-.266.598c0 .266.133.465.333.665.199.199.465.265.73.265.333 0 .599-.066.93-.199.267-.133.466-.332.599-.531.2-.4.266-.798.2-1.263l.066-.266Zm.066 2.392c-.332.266-.73.532-1.196.731-.399.133-.864.266-1.262.266-.4 0-.798-.066-1.13-.266a1.44 1.44 0 0 1-.73-.664c-.2-.266-.267-.598-.267-.93 0-.4.133-.864.465-1.196.333-.333.731-.598 1.197-.665l.797-.133c.398-.066.797-.133 1.063-.266.332-.066.598-.132.997-.265 0-.333-.067-.665-.266-.997-.133-.2-.465-.332-.997-.332-.332 0-.664.066-.93.2-.2.132-.399.331-.532.53-.066.134-.199.333-.332.466-.133.066-.266.133-.398.133a.603.603 0 0 1-.466-.2.603.603 0 0 1-.199-.465c0-.332.133-.598.332-.864.266-.332.598-.531.997-.664.399-.2.93-.266 1.528-.266s1.196.067 1.728.266c.398.133.73.465.93.797.2.465.266.997.266 1.529v1.926c0 .333.066.665.133.997.066.2.133.465.133.665 0 .199-.067.332-.266.465a.755.755 0 0 1-.532.2c-.2 0-.398-.067-.531-.267-.2-.2-.333-.465-.532-.73ZM5.69 6.113c-.333.133-.731.2-1.063.266-.466.133-.798.2-.997.2-.2.066-.399.132-.532.265a.842.842 0 0 0-.265.598c0 .266.132.465.332.665.2.199.465.265.73.265.333 0 .599-.066.93-.199.267-.133.466-.332.599-.531.2-.4.266-.798.2-1.263l.066-.266Zm.066 2.392c-.332.266-.73.532-1.196.731-.399.133-.864.266-1.262.266-.399 0-.798-.066-1.13-.266a1.44 1.44 0 0 1-.73-.664c-.2-.266-.267-.598-.267-.93 0-.4.133-.864.466-1.196.332-.333.73-.598 1.196-.665l.797-.133c.399-.066.797-.133 1.063-.266.266-.066.598-.199.93-.265 0-.333-.066-.665-.266-.997-.132-.2-.465-.266-.93-.266-.332 0-.664.067-.93.2-.266.066-.465.265-.598.465a1.653 1.653 0 0 1-.332.465c-.133.133-.266.133-.399.133a.603.603 0 0 1-.465-.2c-.133-.066-.2-.265-.2-.465 0-.332.134-.598.333-.864.266-.332.598-.531.997-.664.465-.2.996-.266 1.594-.266.598 0 1.196.067 1.728.266.398.133.73.399.93.797.2.465.266.997.266 1.529v1.926c0 .333.066.665.133.997.066.2.133.465.133.665 0 .199-.133.332-.266.465a.754.754 0 0 1-.532.2c-.2 0-.398-.067-.531-.267a18.46 18.46 0 0 0-.532-.73Z"></path><path fill="#ED2A28" d="M4.36 13.422a3.19 3.19 0 1 1 0 6.38 3.19 3.19 0 0 1 0-6.38Z"></path><path fill="#F59E22" d="M14.992 13.422a3.19 3.19 0 1 1-3.19 3.19c0-1.795 1.396-3.19 3.19-3.19Z"></path><path fill="#16AC5B" d="M25.557 13.422a3.19 3.19 0 1 1-.002 6.38 3.19 3.19 0 0 1 .002-6.38Z"></path><path fill="#8252A1" d="M36.188 13.422a3.19 3.19 0 1 1-3.19 3.19c0-1.795 1.396-3.19 3.19-3.19Z"></path><path fill="#347FC2" d="M46.82 13.422a3.19 3.19 0 1 1-3.19 3.19c-.067-1.795 1.395-3.19 3.19-3.19Z"></path></g><defs><clipPath id="csi3wuymheyvvnma"><path fill="#fff" d="M0 0h49.236v20H0z" transform="translate(.972)"></path></clipPath></defs></svg>