<svg xmlns="http://www.w3.org/2000/svg" viewBox="0 0 24 24" width="50px"><path d="M4.227 12.567.17 17.525a.75.75 0 0 0 .433 1.21l3.75.75-.565-.498 1.5 4.5a.75.75 0 0 0 1.346.163l3.944-6.258a.75.75 0 1 0-1.268-.8L5.364 22.85l1.347.163-1.5-4.5a.75.75 0 0 0-.565-.498l-3.75-.75.433 1.21 4.057-4.958a.75.75 0 0 0-1.16-.95zm14.386.95 4.057 4.958.433-1.21-3.75.75a.75.75 0 0 0-.565.498l-1.5 4.5 1.346-.163-3.944-6.258a.75.75 0 1 0-1.268.8l3.944 6.258a.75.75 0 0 0 1.346-.163l1.5-4.5-.565.498 3.75-.75a.75.75 0 0 0 .433-1.21l-4.057-4.958a.75.75 0 1 0-1.16.95M19.5 9a7.496 7.496 0 1 1-4.09-6.682.75.75 0 1 0 .68-1.336A8.996 8.996 0 1 0 21 9a.75.75 0 1 0-1.5 0m-2.03-4.28L12 10.19l-1.72-1.72a.75.75 0 1 0-1.06 1.06l1.72 1.72v.002a1.5 1.5 0 0 0 2.12-.002l5.47-5.47a.75.75 0 0 0-1.06-1.06"></path></svg>