<svg xmlns="http://www.w3.org/2000/svg" viewBox="0 0 128 128" width="50px"><path d="m127.5 104.38-45.33-82a4 4 0 0 0-.33-.5 11 11 0 0 0-2-2c-4.7-3.567-11.398-2.674-15 2a3.6 3.6 0 0 0-.33.5l-25.44 46-7.87-10.47a4 4 0 0 0-6.75.55l-24 46A4 4 0 0 0 4 110.31h120a4 4 0 0 0 3.5-5.93M71.32 26.57a2.73 2.73 0 0 1 3.68-.32q.193.14.35.32L89 51.35l-7.33 6.87-2.54-2.84a7.85 7.85 0 0 0-5.83-2.68 7.88 7.88 0 0 0-5.87 2.68l-2.54 2.83-7.24-6.91zM28.61 67.79l6.21 8.28-14.51 26.24H10.6zm.84 34.52L42.83 78.1q.295-.4.48-.86l10.34-18.7 5.86 5.6a7.78 7.78 0 0 0 5.71 2.17 7.9 7.9 0 0 0 5.56-2.67l2.52-2.83 2.53 2.83a7.85 7.85 0 0 0 5.55 2.67h.32a7.75 7.75 0 0 0 5.37-2.17l6-5.58 24.19 43.74z"></path></svg>