<svg xmlns="http://www.w3.org/2000/svg" viewBox="0 0 24 24" width="50px"><path d="M5.75 1.513h12.5c.69 0 1.25.56 1.25 1.25v13.5a.25.25 0 0 1-.25.25H4.75a.25.25 0 0 1-.25-.25v-13.5c0-.69.56-1.25 1.25-1.25m0-1.5A2.75 2.75 0 0 0 3 2.763v13.5c0 .966.784 1.75 1.75 1.75h14.5a1.75 1.75 0 0 0 1.75-1.75v-13.5a2.75 2.75 0 0 0-2.75-2.75zm-3.65 23.7 2.25-3a.75.75 0 1 0-1.2-.9l-2.25 3a.75.75 0 1 0 1.2.9m21-.9-2.25-3a.75.75 0 1 0-1.2.9l2.25 3a.75.75 0 1 0 1.2-.9m-19.35-12.3h16.5a.75.75 0 0 0 0-1.5H3.75a.75.75 0 0 0 0 1.5m7.5-9.75v9a.75.75 0 0 0 1.5 0v-9a.75.75 0 0 0-1.5 0m-7.5 12.75H7.5a.75.75 0 0 0 0-1.5H3.75a.75.75 0 0 0 0 1.5m16.5-1.5H16.5a.75.75 0 0 0 0 1.5h3.75a.75.75 0 0 0 0-1.5M8.92 17.598l1.5-3-.67.415h4.5l-.67-.415 1.5 3a.75.75 0 1 0 1.34-.67l-1.5-3a.75.75 0 0 0-.67-.415h-4.5a.75.75 0 0 0-.67.415l-1.5 3a.75.75 0 1 0 1.34.67"></path></svg>