<svg xmlns="http://www.w3.org/2000/svg" viewBox="0 0 24 24" width="50px"><path d="M16.01 15a4.5 4.5 0 1 0-9 0l.75-.75a3.75 3.75 0 1 0 0 7.5 4.96 4.96 0 0 0 2.245-.59 3.28 3.28 0 0 1 3.018.005c.677.365 1.44.567 2.22.585a3.75 3.75 0 1 0 .018-7.5zm-1.5 0c0 .414.336.75.75.75a2.25 2.25 0 0 1 0 4.5 3.4 3.4 0 0 1-1.536-.41 4.79 4.79 0 0 0-4.42-.005 3.46 3.46 0 0 1-1.562.415A2.247 2.247 0 0 1 5.51 18a2.25 2.25 0 0 1 2.25-2.25.75.75 0 0 0 .75-.75 3 3 0 1 1 6 0m-9.75-3.75a1.5 1.5 0 1 1-3 0 1.5 1.5 0 0 1 3 0m1.5 0a3 3 0 1 0-6 0 3 3 0 0 0 6 0m3-6a1.5 1.5 0 1 1-3 0 1.5 1.5 0 0 1 3 0m1.5 0a3 3 0 1 0-6 0 3 3 0 0 0 6 0m6 0a1.5 1.5 0 1 1-3 0 1.5 1.5 0 0 1 3 0m1.5 0a3 3 0 1 0-6 0 3 3 0 0 0 6 0m3.75 6a1.5 1.5 0 1 1-3 0 1.5 1.5 0 0 1 3 0m1.5 0a3 3 0 1 0-6 0 3 3 0 0 0 6 0"></path></svg>