<svg width="28" height="28" viewBox="0 0 340 340" xmlns="http://www.w3.org/2000/svg" xmlns:xlink="http://www.w3.org/1999/xlink"><defs><path id="a" d="M.06.495h333.788V334.94H.06z"></path></defs><g fill="none" fill-rule="evenodd"><mask id="b" fill="#fff"><use xlink:href="#a"></use></mask><path d="M333.839 59.179c0-32.395-26.28-58.684-58.684-58.684H58.683C26.278.495 0 26.784 0 59.179l.019 186.995v30.152L0 335h275.164c32.415 0 58.675-26.268 58.684-58.674l-.009-217.147" fill="#253C69" mask="url(#b)"></path><path d="M218.481 230.088c0-10.783 8.705-19.516 19.44-19.516 10.752 0 19.496 8.733 19.496 19.516 0 10.781-8.744 19.527-19.496 19.527-10.735 0-19.44-8.746-19.44-19.527" fill="#2393C5"></path><path d="M148.861 220.31l-27.224-.017v-32.561c0-6.955 2.704-10.57 8.656-11.39h18.568c13.267 0 21.816 8.357 21.834 21.863-.018 13.875-8.365 22.105-21.834 22.105zm-27.224-87.802v-8.579c0-7.497 3.168-11.062 10.144-11.506h13.931c11.96 0 19.101 7.138 19.101 19.1 0 9.12-4.899 19.777-18.656 19.777h-24.52v-18.792zm62.006 32.491l-4.927-2.772 4.308-3.681c4.995-4.28 13.372-13.943 13.372-30.647 0-25.535-19.826-42.016-50.471-42.016H106.95c-9.082.338-16.356 7.728-16.453 16.868v144.938h16.057c.039.02.049 0 .069.02l39.997-.02c34.085 0 56.094-18.548 56.094-47.281 0-15.457-7.13-28.685-19.071-35.409z" fill="#FFFFFE"></path></g></svg>