<svg xmlns="http://www.w3.org/2000/svg" viewBox="0 0 24 24" width="50px"><path d="M.311 2.56v6.257a3.75 3.75 0 0 0 1.098 2.651l11.56 11.562a2.25 2.25 0 0 0 3.182 0l6.88-6.88a2.25 2.25 0 0 0 0-3.181L11.468 1.408A3.75 3.75 0 0 0 8.818.31H2.56A2.25 2.25 0 0 0 .31 2.56zm1.5 0a.75.75 0 0 1 .75-.75h6.257a2.25 2.25 0 0 1 1.59.659l11.562 11.56a.75.75 0 0 1 0 1.06l-6.88 6.88a.75.75 0 0 1-1.06 0L2.47 10.409a2.25 2.25 0 0 1-.659-1.59zm5.25 3.75a.75.75 0 1 1-1.5 0 .75.75 0 0 1 1.5 0m1.5 0a2.25 2.25 0 1 0-4.5 0 2.25 2.25 0 0 0 4.5 0"></path></svg>