<svg xmlns="http://www.w3.org/2000/svg" fill="none" viewBox="0 0 104 24"><path fill="#DA3743" fill-rule="evenodd" d="M.607 12c0-1.588 1.277-2.875 2.853-2.875A2.865 2.865 0 0 1 6.314 12a2.865 2.865 0 0 1-2.854 2.875A2.864 2.864 0 0 1 .607 12Zm20.046 2.875c-1.577 0-2.854-1.287-2.854-2.875a2.864 2.864 0 0 1 2.854-2.875A2.865 2.865 0 0 1 23.506 12c0 1.588-1.279 2.875-2.855 2.875Zm0-14.375C14.348.5 9.236 5.649 9.236 12c0 6.352 5.111 11.5 11.415 11.5 6.306 0 11.416-5.148 11.416-11.5 0-6.35-5.11-11.5-11.415-11.5Z" clip-rule="evenodd"></path><path fill="#262626" fill-rule="evenodd" d="M102.24 11.11c.18 0 .287-.082.287-.23 0-.134-.073-.222-.274-.222h-.187v.452h.174Zm-.448-.68h.507c.281 0 .521.115.521.437a.393.393 0 0 1-.246.37l.307.56h-.307l-.235-.472h-.273v.471h-.274V10.43Zm1.475.7c0-.632-.433-1.083-.994-1.083-.561 0-.989.45-.989 1.082 0 .64.428 1.077.989 1.077.561 0 .995-.437.995-1.076h-.001Zm-2.25 0c0-.788.568-1.325 1.256-1.325.694 0 1.262.537 1.262 1.325 0 .787-.568 1.325-1.262 1.325-.688 0-1.256-.538-1.256-1.325Zm-8.377 5.38a.315.315 0 0 0 .312-.313v-1.154a.314.314 0 0 0-.31-.313h-.05c-.14 0-.28-.14-.28-.281v-6.84c0-.156-.155-.312-.31-.312H90.86c-.155 0-.31.156-.31.312v7.577l.005.197c0 .565.56 1.128 1.12 1.128l.964-.002ZM42.417 9.102c1.553 0 2.863 1.325 2.863 2.896a2.87 2.87 0 0 1-2.863 2.872c-1.57 0-2.848-1.287-2.848-2.872 0-1.597 1.277-2.896 2.848-2.896Zm0-1.823c-2.568 0-4.658 2.116-4.658 4.72 0 2.632 2.045 4.695 4.658 4.695 2.621 0 4.674-2.063 4.674-4.696 0-2.602-2.097-4.72-4.674-4.72Zm37.177 7.36c-.084.24-.592.694-1.17.694-.605 0-.943-.369-.943-.922 0-.582.408-.937 1.155-.937.52 0 .958.199.958.199v.965Zm-.761-4.84c-1.056 0-2.085.268-2.226.325-.141.043-.268.156-.212.398l.142.738c.027.199.154.355.365.284.382-.114 1.24-.242 1.833-.242.69 0 .93.398.9 1.235 0 0-.59-.184-1.253-.184-1.648 0-2.593.894-2.593 2.058 0 1.405.903 2.242 2.198 2.242a2.84 2.84 0 0 0 2.044-.823v.353c0 .17.14.312.31.312h.114a.212.212 0 0 0 .04.003h.48a.315.315 0 0 0 .31-.313v-3.534c0-1.789-.423-2.853-2.452-2.853Zm-11.827 0c-1.248 0-1.853.673-2.095.945v-.492a.314.314 0 0 0-.31-.312h-.737a.314.314 0 0 0-.31.312v5.933a.324.324 0 0 0 .31.313h1.042c.31 0 .409-.072.409-.313V12.44c.155-.454.564-1.022 1.409-1.022.788 0 1.126.525 1.126 1.377v3.392c0 .17.142.313.311.313h1.14a.324.324 0 0 0 .31-.313v-3.392c0-1.59-.535-2.995-2.605-2.995Zm-15.513 5.237c-.818 0-1.353-.37-1.353-.37v-2.342c.141-.37.592-.909 1.438-.909 1.014 0 1.535.895 1.535 1.817 0 .923-.55 1.803-1.62 1.803Zm.324-5.238a2.8 2.8 0 0 0-2.125.977v-.522a.314.314 0 0 0-.31-.313h-.693a.315.315 0 0 0-.31.312v8.601a.325.325 0 0 0 .31.313h1.142c.154 0 .31-.157.31-.313v-2.47a4.8 4.8 0 0 0 1.563.27c1.945 0 3.227-1.504 3.227-3.42 0-1.988-1.34-3.435-3.114-3.435Zm46.462 2.597c-.028-.639-.535-1.136-1.254-1.136-.789 0-1.296.483-1.38 1.136h2.634ZM97.069 9.8c1.69 0 2.985 1.263 2.985 3.037 0 .1-.015.326-.028.426a.331.331 0 0 1-.31.298h-4.17c.015.809.676 1.518 1.62 1.518.648 0 1.099-.241 1.395-.482.155-.128.324-.142.423 0l.549.738c.112.127.127.284-.028.426-.672.583-1.534.9-2.423.894-1.944 0-3.297-1.561-3.297-3.435 0-1.845 1.353-3.42 3.283-3.42ZM86.04 15.037c-.845 0-1.296-.54-1.437-.91v-2.34s.536-.37 1.353-.37c1.07 0 1.62.88 1.62 1.803 0 .922-.521 1.817-1.535 1.817Zm.155-5.238c-.648 0-1.296.156-1.592.284V7.585a.324.324 0 0 0-.31-.313h-1.141c-.155 0-.31.156-.31.313v8.601a.324.324 0 0 0 .31.313h.493c.01 0 .018 0 .028-.003h.132a.314.314 0 0 0 .312-.312v-.485l.007-.025s.748.979 2.17.979c1.776 0 3.058-1.561 3.058-3.434 0-1.917-1.226-3.42-3.156-3.42Zm-9.968-2.527H69.6a.268.268 0 0 0-.267.27v1.165c0 .141.112.269.267.269h2.39v7.253a.278.278 0 0 0 .269.27h1.31a.277.277 0 0 0 .268-.27V8.976h2.39a.268.268 0 0 0 .268-.27V7.542a.27.27 0 0 0-.268-.27Zm-15.775 5.124c-.028-.639-.536-1.136-1.254-1.136-.788 0-1.296.483-1.38 1.136h2.634ZM59.241 9.8c1.691 0 2.987 1.263 2.987 3.037 0 .1-.013.326-.028.426a.332.332 0 0 1-.31.298h-4.17c.015.809.676 1.518 1.62 1.518.649 0 1.099-.241 1.395-.482.155-.128.324-.142.423 0l.549.738c.113.127.127.284-.028.426a3.66 3.66 0 0 1-2.424.894c-1.944 0-3.296-1.561-3.296-3.435 0-1.845 1.352-3.42 3.282-3.42Z" clip-rule="evenodd"></path></svg>